# xmcd
#
# Track frame offsets:
#	150
#	17859
#	29601
#	41793
#	69463
#	80318
#	93569
#	104816
#	129456
#	141143
#	156823
#	169726
#
# Disc length: 2431 seconds
#
# Revision: 2
# Processed by: cddbd v1.5.1PL2 Copyright (c) Steve Scherf et al.
# Submitted via: audiograbber 1.83.01
#
DISCID=a5097d0c
DTITLE=Diverse - Dances and Candlelight
DYEAR=1900
DGENRE=
TTITLE0=April love
TTITLE1=Parlez moi damour
TTITLE2=Chances are
TTITLE3=Slowfox Medley
TTITLE4=Traum wenn du einsam bist
TTITLE5=Good night Irene
TTITLE6=The Hawaiian Wedding Song
TTITLE7=Beguine Medley
TTITLE8=Ich bild mir ein
TTITLE9=Tenderly
TTITLE10=Stardust
TTITLE11=I almost lost mind
EXTD=Schallplatte
EXTT0=
EXTT1=
EXTT2=
EXTT3=
EXTT4=
EXTT5=
EXTT6=
EXTT7=
EXTT8=
EXTT9=
EXTT10=
EXTT11=
PLAYORDER=
